<svg width="250" height="450" viewBox="0 0 250 450" fill="none" xmlns="http://www.w3.org/2000/svg">
<path d="M3 0H249V312H3V0Z" fill="#EC6E89"/>
<path d="M4.1549 312L4.15488 444.026C4.15488 447.758 8.81481 449.457 11.2167 446.6L122.206 314.574C124.393 311.972 122.544 308 119.144 308L8.1549 308C5.94576 308 4.1549 309.791 4.1549 312Z" fill="#EC6E89"/>
<path d="M245.535 312L245.535 443.946C245.535 447.688 240.856 449.381 238.462 446.506L128.576 314.56C126.406 311.954 128.259 308 131.649 308L241.535 308C243.744 308 245.535 309.791 245.535 312Z" fill="#EC6E89"/>
<path fill-rule="evenodd" clip-rule="evenodd" d="M0.5 443.234V0H5.5V443.234C5.5 444.625 7.22815 445.267 8.13608 444.214L120.485 313.898C123.086 310.881 127.764 310.892 130.351 313.921L241.549 444.131C242.455 445.191 244.19 444.551 244.19 443.157V0H249.19V443.157C249.19 449.197 241.67 451.971 237.747 447.378L126.549 317.168C125.952 316.469 124.872 316.467 124.272 317.163L11.923 447.479C7.98861 452.042 0.5 449.26 0.5 443.234Z" fill="black"/>
</svg>
