<svg width="410" height="407" viewBox="0 0 410 407" fill="none" xmlns="http://www.w3.org/2000/svg">
<g clip-path="url(#clip0_1_2)">
<path d="M323 27L233 113H328L323 27Z" fill="white"/>
<rect x="40" y="109" width="352" height="280" fill="white"/>
<path d="M305.798 27.3337L309.902 23.2667C312.266 20.7384 315.332 18.9744 318.707 18.2016C322.082 17.4287 325.611 17.6824 328.84 18.93C332.07 20.1776 334.852 22.362 336.828 25.2023C338.805 28.0425 339.886 31.4086 339.932 34.8676L339.932 75.471L345.304 75.471C349.267 75.47 353.192 76.2531 356.851 77.775C360.511 79.2969 363.832 81.5276 366.624 84.3384C369.135 86.8677 371.189 89.8112 372.697 93.0391L374.165 93.0391C383.661 93.0479 392.765 96.8182 399.483 103.523C406.2 110.229 409.982 119.322 410 128.809L410 371.229C409.968 380.079 406.637 388.6 400.658 395.131L399.456 396.464C392.768 403.182 383.683 406.971 374.198 406.998L59.191 406.998C50.8287 406.952 42.7422 404.004 36.315 398.659C29.8877 393.314 25.5192 385.904 23.9567 377.696C18.2593 376.436 13.0394 373.58 8.90866 369.462C6.09278 366.665 3.85649 363.341 2.32782 359.681C0.799159 356.02 0.00813143 352.093 -2.53709e-05 348.127L-4.17785e-06 105.707C0.00882812 97.6905 3.20006 90.0049 8.87353 84.3365C14.547 78.6681 22.2393 75.4798 30.2628 75.4709L210.439 75.471L285.245 3.8651C286.846 2.10428 288.943 0.868126 291.26 0.318837C293.577 -0.230451 296.006 -0.0672259 298.228 0.787069C300.451 1.64136 302.363 3.14685 303.714 5.10604C305.065 7.06523 305.791 9.38666 305.798 11.7658L305.798 27.3337ZM322.915 34.8676L244.138 110.307L59.1911 110.307C54.2971 110.316 49.6056 112.26 46.1419 115.714C42.6782 119.169 40.724 123.852 40.7064 128.742L40.7063 371.229C40.75 376.11 42.7126 380.779 46.1706 384.227C49.6287 387.676 54.3051 389.629 59.191 389.663L374.198 389.663C379.076 389.611 383.739 387.652 387.188 384.206C390.637 380.76 392.598 376.102 392.65 371.229L392.65 128.809C392.632 123.919 390.685 119.233 387.23 115.769C383.776 112.305 379.093 110.342 374.198 110.307L322.915 110.307L322.915 34.801L322.915 34.8676Z" fill="#161613"/>
</g>
<defs>
<clipPath id="clip0_1_2">
<rect width="410" height="407" fill="white"/>
</clipPath>
</defs>
</svg>
