<svg width="246" height="451" viewBox="0 0 246 451" fill="none" xmlns="http://www.w3.org/2000/svg">
<rect width="246" height="314" fill="#EC6E89"/>
<path d="M1.44383e-05 314L1.07883e-06 446.315C7.05428e-07 450.013 4.58808 451.731 7.01666 448.942L122.23 316.627C124.484 314.038 122.645 310 119.213 310L4.00001 310C1.79088 310 1.46614e-05 311.791 1.44383e-05 314Z" fill="#EC6E89"/>
<path d="M246 313L246 445.315C246 449.013 241.412 450.731 238.983 447.942L123.77 315.627C121.516 313.038 123.355 309 126.787 309L242 309C244.209 309 246 310.791 246 313Z" fill="#EC6E89"/>
</svg>
