<svg width="246" height="451" viewBox="0 0 246 451" fill="none" xmlns="http://www.w3.org/2000/svg">
<rect width="246" height="314" fill="#EC6E89"/>
<path d="M-7.1952e-07 313L-1.41744e-05 446.26C-1.45485e-05 449.965 4.6019 451.679 7.02544 448.877L122.278 315.617C124.519 313.025 122.678 309 119.252 309L4 309C1.79086 309 -4.96469e-07 310.791 -7.1952e-07 313Z" fill="#EC6E89"/>
<path d="M246 313L246 446.26C246 449.965 241.398 451.679 238.975 448.877L123.722 315.617C121.481 313.025 123.322 309 126.748 309L242 309C244.209 309 246 310.791 246 313Z" fill="#EC6E89"/>
</svg>
